<svg width="21" height="20" viewBox="0 0 21 20" fill="none" xmlns="http://www.w3.org/2000/svg">
<g clip-path="url(#clip0)">
<path d="M11.0781 6.83254L8.21514 9.69553L8.2015 9.54556C8.2015 8.04134 9.42394 6.81891 10.9282 6.81891L11.0781 6.83254Z" fill="#A3A3A3"/>
<path d="M10.9282 5.00117C8.41968 5.00117 6.38377 7.03708 6.38377 9.5456C6.38377 10.1318 6.50191 10.6908 6.70641 11.2043L4.04792 13.8628C2.67552 12.7176 1.59394 11.2361 0.925908 9.5456C2.50281 5.55562 6.37921 2.72897 10.9282 2.72897C12.2006 2.72897 13.4185 2.95618 14.55 3.36518L12.5869 5.32381C12.0734 5.12387 11.5144 5.00117 10.9282 5.00117Z" fill="#A3A3A3"/>
<path d="M20.0172 2.52443L17.9449 4.59668L17.5313 5.01024C19.031 6.1827 20.2171 7.74145 20.926 9.54556C19.3536 13.5355 15.4727 16.3622 10.9283 16.3622C9.5195 16.3622 8.17436 16.0895 6.94281 15.5942L6.55652 15.9805L3.90711 18.6344L2.74828 17.4801L18.8583 1.3656L20.0172 2.52443ZM14.991 7.54603L13.5868 8.95026C13.6277 9.14568 13.6549 9.34106 13.6549 9.54556C13.6549 11.0498 12.4325 12.2722 10.9283 12.2722C10.7238 12.2722 10.5284 12.2449 10.3375 12.204L8.93327 13.6083C9.53769 13.9082 10.2102 14.09 10.9283 14.09C13.4368 14.09 15.4727 12.0541 15.4727 9.54556C15.4727 8.82756 15.2909 8.15497 14.991 7.54603Z" fill="#A3A3A3"/>
</g>
<defs>
<clipPath id="clip0">
<rect width="20" height="20" fill="white" transform="matrix(-1 0 0 1 20.926 0)"/>
</clipPath>
</defs>
</svg>
