<svg width="40" height="40" viewBox="0 0 40 40" fill="none" xmlns="http://www.w3.org/2000/svg">
<path fill-rule="evenodd" clip-rule="evenodd" d="M25.0646 39.3532C33.6579 37.1106 40 29.2959 40 20C40 8.9543 31.0457 0 20 0C8.9543 0 0 8.9543 0 20C0 20.2706 0.00537372 20.5399 0.0160203 20.8079C1.97433 13.7437 7.58779 9.82528 14.5142 9.82528C22.0888 9.82528 27.8097 14.1719 28.7205 21.7305H21.7212C21.1939 18.1349 18.4613 15.9457 14.674 15.9457C9.60831 15.9457 6.28445 19.8288 6.28445 26.6364C6.28445 33.6357 9.65625 37.3271 14.6261 37.3271C18.3175 37.3271 21.0661 35.3136 21.7212 31.8139L28.7205 31.8459C28.3763 34.6069 27.1259 37.2739 25.0646 39.3532Z" fill="#FDFFFE"/>
</svg>
